<?xml version="1.0" standalone="no"?>
<!DOCTYPE svg PUBLIC "-//W3C//DTD SVG 20010904//EN"
 "http://www.w3.org/TR/2001/REC-SVG-20010904/DTD/svg10.dtd">
<svg version="1.0" xmlns="http://www.w3.org/2000/svg"
 width="1024.000000pt" height="1024.000000pt" viewBox="0 0 1024.000000 1024.000000"
 preserveAspectRatio="xMidYMid meet">
<metadata>
Created by potrace 1.11, written by Peter Selinger 2001-2013
</metadata>
<g transform="translate(0.000000,1024.000000) scale(0.100000,-0.100000)"
fill="#000000" stroke="none">
<path d="M4944 10203 c7 -12 -12 -18 -38 -14 -4 1 -14 -4 -22 -10 -11 -9 -14
-8 -14 2 0 9 -3 10 -8 4 -7 -10 -27 -17 -49 -18 -7 0 -13 -5 -13 -11 0 -6 -4
-4 -10 4 -8 12 -10 12 -15 -2 -4 -10 -14 -14 -27 -10 -16 4 -19 2 -13 -8 5 -8
4 -11 -2 -7 -5 3 -21 0 -36 -8 -20 -10 -27 -11 -27 -2 0 7 -10 1 -21 -13 -11
-14 -18 -19 -14 -12 9 18 -6 15 -22 -5 -8 -11 -11 -12 -7 -3 7 13 5 13 -9 1
-9 -7 -17 -10 -17 -5 0 4 -12 -3 -27 -17 -14 -13 -23 -17 -19 -9 4 8 0 6 -9
-5 -9 -11 -17 -19 -18 -17 -1 2 -15 -1 -30 -7 -18 -7 -25 -15 -21 -23 5 -8 2
-9 -10 -5 -11 4 -25 -2 -41 -17 -13 -13 -26 -21 -29 -18 -3 3 -6 0 -6 -7 0 -7
-4 -9 -10 -6 -5 3 -10 1 -10 -6 0 -7 -3 -10 -6 -6 -4 3 -15 -4 -25 -16 -10
-12 -18 -18 -19 -14 0 4 -13 -6 -30 -23 -16 -16 -33 -30 -39 -30 -5 0 -12 -7
-15 -16 -4 -9 -9 -14 -12 -11 -3 3 -21 -10 -39 -28 -18 -19 -36 -31 -40 -27
-5 4 -5 -1 -2 -11 4 -11 3 -16 -3 -12 -6 3 -10 1 -10 -5 0 -6 -4 -9 -9 -6 -5
4 -15 -7 -23 -24 -7 -17 -18 -28 -23 -26 -16 6 -35 -18 -35 -45 0 -5 -4 -8 -8
-5 -5 3 -19 -9 -33 -26 -13 -17 -34 -42 -46 -55 -13 -13 -23 -28 -23 -33 0 -6
-5 -10 -11 -10 -5 0 -7 -4 -4 -10 3 -5 -1 -10 -9 -10 -9 0 -16 -9 -16 -21 0
-11 -4 -18 -9 -14 -5 3 -12 -3 -16 -14 -3 -11 -13 -22 -21 -25 -8 -3 -12 -10
-9 -16 3 -5 1 -10 -5 -10 -6 0 -9 -4 -6 -9 3 -5 -1 -11 -9 -15 -8 -3 -15 -13
-15 -21 0 -9 -4 -14 -9 -11 -5 3 -12 -1 -15 -10 -4 -10 -2 -13 7 -8 6 4 0 -5
-15 -21 -16 -15 -28 -34 -28 -41 0 -8 -7 -14 -15 -14 -9 0 -12 -6 -8 -17 5
-12 3 -14 -7 -8 -8 5 -11 4 -7 -2 4 -6 -3 -22 -14 -37 -11 -14 -17 -30 -14
-36 4 -6 1 -9 -7 -8 -7 2 -12 -3 -10 -9 1 -7 -3 -13 -9 -13 -5 0 -8 -4 -5 -9
3 -4 -2 -17 -10 -27 -9 -10 -12 -13 -8 -5 5 10 3 12 -5 7 -9 -6 -9 -11 0 -22
9 -11 8 -15 -5 -20 -9 -3 -13 -10 -10 -15 3 -5 -2 -12 -10 -15 -9 -3 -13 -10
-10 -15 3 -5 0 -9 -6 -9 -7 0 -10 -6 -8 -12 3 -7 -1 -19 -9 -26 -7 -8 -11 -18
-8 -23 4 -5 1 -9 -5 -9 -6 0 -9 -4 -6 -9 4 -5 1 -11 -4 -13 -6 -2 -12 -10 -13
-19 -2 -9 -11 -28 -21 -44 -10 -15 -13 -24 -7 -21 6 4 3 -6 -6 -23 -10 -16
-22 -27 -28 -23 -5 3 -4 -2 4 -11 9 -11 10 -17 2 -17 -6 0 -11 -3 -10 -7 3
-18 -14 -52 -22 -47 -5 3 -6 -2 -3 -10 4 -10 1 -16 -7 -16 -11 0 -11 -3 1 -10
11 -7 11 -10 2 -10 -7 0 -12 -8 -10 -17 2 -12 -2 -17 -12 -15 -8 2 -12 0 -8
-4 4 -4 2 -14 -5 -22 -10 -13 -9 -14 3 -7 12 6 13 5 3 -6 -7 -7 -13 -23 -13
-36 0 -13 -4 -23 -10 -23 -5 0 -10 -11 -10 -24 0 -14 -5 -28 -10 -31 -6 -4 -8
-11 -5 -16 4 -5 2 -9 -4 -9 -5 0 -8 -9 -6 -20 2 -11 0 -20 -6 -20 -5 0 -9 -10
-9 -23 0 -13 -3 -27 -7 -31 -5 -4 -9 -12 -9 -17 -1 -5 -3 -11 -4 -14 -2 -4 -4
-17 -9 -56 0 -5 -6 -7 -13 -3 -8 5 -9 2 -5 -10 4 -10 2 -27 -4 -38 -7 -12 -7
-18 -1 -14 6 3 5 -4 -1 -19 -7 -14 -16 -25 -22 -25 -5 0 -3 -5 5 -10 11 -7 11
-10 2 -10 -7 0 -10 -4 -7 -10 3 -5 2 -10 -3 -10 -5 0 -8 -10 -7 -22 1 -13 -5
-31 -13 -41 -15 -16 -14 -17 4 -12 17 6 17 5 4 -7 -9 -7 -15 -25 -15 -40 1
-16 -2 -28 -6 -28 -3 0 -6 -12 -6 -26 0 -15 -7 -30 -14 -35 -12 -7 -12 -9 0
-9 11 0 11 -3 1 -15 -10 -12 -10 -15 1 -15 10 0 11 -2 2 -8 -6 -4 -14 -21 -17
-37 -2 -17 -5 -30 -6 -30 -1 0 -3 -8 -5 -17 -2 -10 2 -18 8 -18 8 0 8 -3 -1
-9 -7 -4 -14 -18 -15 -29 -1 -12 -6 -22 -12 -22 -5 0 -4 -4 4 -9 8 -6 10 -14
5 -22 -14 -24 -15 -51 -2 -44 7 4 5 0 -4 -8 -21 -16 -24 -31 -5 -22 6 4 3 -1
-7 -9 -11 -9 -14 -16 -7 -16 7 0 9 -4 6 -10 -12 -20 -14 -50 -2 -50 7 0 5 -6
-5 -14 -14 -10 -15 -15 -5 -26 9 -10 9 -11 0 -6 -8 5 -13 1 -13 -9 0 -10 5
-14 13 -9 10 6 10 4 0 -7 -7 -7 -13 -20 -13 -29 0 -14 -52 -16 -527 -15 -291
0 -536 -1 -545 -3 -10 -3 -15 -8 -12 -13 3 -5 -2 -6 -10 -3 -9 3 -13 11 -9 18
3 6 -2 3 -13 -6 -16 -14 -23 -15 -32 -6 -7 7 -12 8 -12 2 0 -5 -12 -11 -26
-12 -15 -1 -33 -10 -40 -20 -13 -16 -14 -16 -8 1 6 17 5 18 -15 6 -11 -8 -21
-18 -21 -24 0 -5 -5 -3 -10 5 -7 11 -10 11 -10 2 0 -7 -4 -10 -10 -7 -5 3 -10
1 -10 -5 0 -6 -4 -9 -9 -6 -5 3 -11 -1 -15 -9 -3 -8 -12 -12 -21 -9 -8 3 -15
1 -15 -5 0 -6 -6 -11 -14 -11 -7 0 -25 -11 -39 -24 -14 -13 -28 -21 -31 -18
-3 3 -6 -2 -6 -12 0 -9 -4 -14 -10 -11 -5 3 -10 1 -10 -6 0 -7 -3 -10 -6 -6
-7 7 -38 -24 -47 -47 -4 -9 -11 -14 -17 -11 -9 5 -14 -8 -7 -19 1 -2 -11 -14
-26 -26 -15 -12 -26 -25 -23 -27 3 -3 -6 -17 -20 -32 -13 -14 -22 -32 -19 -38
2 -7 0 -13 -6 -13 -6 0 -8 -4 -5 -8 3 -5 -3 -18 -13 -28 -10 -11 -17 -30 -16
-42 1 -12 -2 -22 -7 -22 -5 0 -6 -4 -3 -10 7 -12 -19 -52 -28 -45 -4 3 -3 -1
3 -7 14 -17 12 -31 -2 -22 -9 5 -9 2 1 -9 10 -13 10 -17 1 -17 -10 0 -10 -3
-1 -14 8 -10 9 -16 1 -21 -7 -4 -10 -928 -10 -3056 0 -2194 3 -3048 11 -3043
8 4 8 0 0 -14 -14 -26 -14 -42 0 -22 8 12 9 12 7 -5 -1 -11 1 -26 6 -34 7 -11
6 -12 -5 -6 -11 7 -12 6 -2 -6 6 -8 11 -18 11 -22 0 -5 4 -12 8 -15 4 -4 4 -1
-1 7 -5 9 -4 12 2 8 6 -4 9 -18 8 -32 -2 -14 1 -25 6 -25 6 0 7 -4 4 -10 -3
-5 -1 -10 4 -10 6 0 11 -5 11 -11 0 -5 -6 -7 -13 -4 -6 4 -2 -3 11 -14 13 -11
23 -22 23 -25 2 -21 13 -46 20 -46 5 0 9 -9 9 -20 0 -11 4 -20 8 -20 16 0 49
-35 45 -47 -3 -7 3 -13 12 -13 9 0 14 -4 11 -8 -3 -5 6 -15 19 -22 14 -7 25
-19 25 -27 0 -7 3 -12 7 -12 21 3 33 -2 33 -16 0 -13 6 -17 26 -14 3 0 14 -9
24 -21 10 -12 22 -21 27 -22 4 0 7 -4 6 -9 -2 -4 5 -5 14 -2 9 4 21 -1 29 -12
10 -14 14 -15 14 -4 0 9 3 10 8 3 11 -16 48 -29 100 -36 6 -1 12 -5 12 -9 0
-5 7 -5 17 -2 11 4 14 3 9 -5 -10 -16 6286 -17 6316 -1 15 8 19 8 14 0 -4 -6
-1 -11 8 -11 8 0 17 4 21 10 3 5 12 7 19 4 8 -3 17 0 21 5 3 6 11 9 16 6 5 -4
9 -2 9 2 0 5 8 9 18 10 45 3 60 8 55 17 -4 5 1 7 11 3 9 -4 15 -3 12 2 -5 8
19 19 35 17 3 -1 14 7 24 17 9 10 24 16 31 13 8 -3 13 -1 11 3 -1 5 1 10 5 10
4 1 29 23 55 49 25 26 43 40 38 32 -4 -8 1 -6 12 5 11 11 19 23 17 26 -1 3 6
11 16 19 10 8 17 17 14 22 -3 4 2 8 10 8 9 0 15 3 14 8 -4 13 39 72 47 64 5
-4 5 -1 0 7 -4 8 -2 16 5 21 6 4 13 19 13 33 1 14 5 23 9 21 9 -6 21 33 14 45
-3 5 2 12 11 15 15 6 15 8 3 16 -13 8 -13 10 -1 10 8 0 11 3 8 7 -4 3 0 17 9
30 11 18 13 28 4 38 -8 10 -8 14 2 17 10 4 10 9 -2 23 -9 11 -10 16 -2 11 10
-6 12 601 12 3041 0 1964 -4 3043 -10 3033 -13 -20 -13 -4 0 21 7 13 7 19 0
19 -5 0 -10 5 -10 11 0 5 6 7 13 3 10 -6 10 -4 0 7 -7 7 -13 21 -13 31 0 10
-6 29 -14 41 -7 12 -13 32 -12 44 2 12 -2 21 -8 20 -6 -1 -10 6 -8 16 2 10 -3
17 -13 17 -9 0 -13 4 -10 10 3 5 -1 20 -10 33 -8 13 -12 27 -8 30 3 4 -2 7
-11 7 -12 0 -16 5 -13 14 4 9 -2 17 -14 21 -11 4 -19 15 -19 27 0 12 -3 19 -6
15 -10 -9 -36 21 -29 33 4 6 3 10 -2 9 -16 -4 -43 13 -43 28 0 8 -4 11 -10 8
-5 -3 -10 -1 -10 5 0 6 -4 8 -10 5 -9 -6 -14 8 -11 27 0 5 -2 7 -7 6 -12 -4
-72 24 -72 33 0 5 -9 9 -20 9 -11 0 -20 5 -20 10 0 6 -7 10 -15 10 -8 0 -15 6
-15 13 0 8 -4 7 -10 -3 -6 -10 -10 -11 -10 -2 0 6 -11 12 -25 12 -14 0 -25 5
-25 12 0 6 -3 8 -7 5 -3 -4 -13 -1 -21 6 -13 10 -14 9 -7 -3 7 -12 6 -13 -7
-3 -8 7 -18 10 -21 6 -4 -3 -7 -1 -7 7 0 9 -3 10 -13 1 -10 -8 -17 -7 -25 1
-9 9 -150 12 -540 14 -290 1 -533 2 -540 3 -9 1 -10 6 -2 20 8 16 6 22 -7 30
-12 7 -14 10 -4 11 11 0 11 3 1 15 -7 8 -8 15 -3 15 5 0 10 7 10 15 0 8 -4 12
-9 9 -5 -3 -7 7 -6 23 1 16 -2 35 -7 42 -5 10 -4 12 3 7 8 -5 10 -2 6 8 -3 9
-11 16 -18 16 -7 0 -6 3 2 9 11 6 10 10 -3 15 -12 4 -14 10 -8 19 5 6 8 21 6
32 -2 11 -5 31 -7 45 -2 14 -5 29 -5 33 -1 5 -7 5 -13 1 -10 -6 -10 -5 -1 8 7
8 10 17 8 20 -7 7 -17 49 -17 71 1 10 -4 15 -10 11 -7 -5 -7 -1 0 12 7 13 6
26 -4 46 -8 15 -12 28 -9 28 3 0 1 9 -5 19 -6 13 -7 22 0 26 5 3 7 12 4 20 -4
8 -11 12 -17 8 -6 -4 -8 0 -4 10 3 10 2 17 -4 17 -7 0 -7 6 0 17 7 13 4 25
-12 47 -12 17 -15 26 -6 21 12 -7 11 -6 -1 10 -8 10 -14 20 -12 22 1 1 2 4 1
6 -1 3 -7 38 -11 62 -2 11 -7 23 -12 27 -14 10 -16 39 -3 31 7 -3 4 3 -6 14
-14 16 -15 22 -5 26 9 4 8 6 -3 6 -11 1 -15 10 -14 31 1 16 -2 27 -6 25 -4 -3
-10 2 -13 11 -4 10 -2 13 7 8 9 -5 9 -4 0 7 -7 7 -13 21 -13 32 0 10 -4 16 -9
12 -6 -3 -8 4 -6 15 2 11 -2 20 -8 20 -7 0 -6 4 3 10 13 8 12 10 -2 10 -10 0
-18 5 -18 11 0 5 4 8 9 5 5 -4 4 5 -2 18 -7 13 -14 23 -17 21 -3 -2 -6 11 -7
28 -2 18 -7 33 -13 35 -5 2 -10 14 -10 27 0 13 -5 27 -12 31 -7 5 -8 3 -3 -6
5 -9 4 -11 -4 -6 -9 6 -9 11 0 22 9 11 9 14 0 14 -7 0 -9 5 -6 10 3 6 1 10 -5
10 -6 0 -8 5 -5 10 3 6 1 10 -5 10 -6 0 -9 4 -6 9 6 10 -16 61 -26 61 -5 0 -8
9 -8 19 0 11 -5 23 -11 26 -6 4 -8 13 -6 20 3 6 -4 20 -14 29 -11 9 -17 21
-14 26 3 6 1 10 -4 10 -6 0 -11 7 -11 16 0 8 -7 22 -16 31 -8 9 -13 22 -10 30
3 7 -1 16 -10 20 -8 3 -13 12 -9 20 4 11 1 13 -10 9 -9 -3 -13 -2 -10 4 7 12
-22 70 -35 70 -5 0 -6 7 -3 17 4 10 2 14 -5 9 -6 -4 -12 3 -14 16 -2 13 -8 22
-14 21 -6 -1 -11 5 -12 13 -1 7 -3 21 -4 28 -1 8 -6 14 -12 13 -6 -1 -10 4 -8
11 1 6 -3 12 -9 12 -5 0 -7 5 -4 10 3 6 -1 10 -9 10 -9 0 -16 3 -15 8 3 17
-14 51 -22 46 -5 -3 -9 2 -9 10 0 8 -9 21 -21 29 -15 11 -17 16 -7 20 9 4 8 6
-4 6 -9 1 -20 6 -24 13 -5 7 -2 9 7 4 8 -4 3 2 -10 13 -13 12 -20 21 -16 21 5
0 -5 12 -21 26 -16 15 -22 23 -14 19 15 -7 6 3 -106 119 -31 32 -50 55 -43 51
8 -5 10 -4 5 3 -4 7 -14 12 -22 12 -8 0 -12 5 -9 10 3 6 -1 10 -10 10 -11 0
-15 5 -11 16 3 8 2 12 -4 9 -6 -3 -10 -1 -10 4 0 6 -6 10 -12 8 -7 -1 -12 4
-11 11 2 6 -2 12 -8 12 -7 0 -22 10 -34 23 -57 56 -133 113 -147 109 -5 -1 -8
5 -8 14 0 8 -4 12 -10 9 -5 -3 -10 -1 -10 5 0 6 -4 8 -10 5 -5 -3 -15 3 -22
15 -7 11 -19 20 -26 20 -7 0 -20 6 -27 13 -31 27 -45 37 -52 39 -29 5 -43 12
-43 20 0 5 -4 7 -9 3 -5 -3 -17 3 -27 12 -10 10 -19 17 -21 16 -2 -2 -10 -3
-19 -3 -9 0 -12 5 -8 13 4 6 4 9 -1 5 -4 -4 -15 -2 -23 5 -13 10 -15 9 -8 -3
6 -12 4 -11 -6 1 -7 9 -18 14 -24 12 -6 -2 -17 3 -24 12 -9 11 -16 12 -25 5
-9 -8 -15 -8 -20 0 -3 5 -15 10 -26 10 -11 0 -18 4 -15 9 3 4 -7 8 -22 8 -15
-1 -38 5 -51 12 -19 11 -22 11 -16 -1 6 -10 5 -11 -6 0 -7 6 -28 12 -47 12
-18 0 -31 4 -28 8 3 5 -1 9 -9 9 -8 0 -12 -4 -9 -9 3 -4 0 -8 -5 -8 -6 0 -11
4 -11 10 0 6 -61 9 -160 8 -87 0 -157 -5 -154 -10 8 -12 -10 -10 -25 5 -11 10
-13 10 -7 0z m136 -434 c0 7 5 9 12 5 15 -9 78 -11 78 -2 0 4 14 3 30 -2 21
-6 30 -5 30 3 0 7 7 3 15 -7 11 -15 15 -16 16 -5 0 10 2 11 6 1 4 -10 8 -10
21 0 12 10 14 10 8 1 -5 -9 1 -13 18 -14 38 -2 44 -3 52 -11 4 -5 18 -8 31 -8
12 0 23 -5 23 -11 0 -5 4 -8 9 -4 13 7 61 -15 61 -29 0 -6 4 -4 10 4 8 12 10
12 16 -3 3 -10 17 -17 31 -17 13 0 21 -4 18 -10 -3 -6 4 -10 17 -10 13 0 30
-9 38 -19 7 -11 17 -18 22 -15 4 3 8 0 8 -6 0 -6 5 -8 10 -5 6 3 10 1 10 -4 0
-6 6 -11 14 -11 8 0 18 -9 21 -20 3 -11 13 -20 22 -20 9 0 24 -10 34 -22 11
-11 19 -18 19 -13 0 4 12 -6 28 -23 15 -16 37 -35 50 -41 12 -7 20 -16 17 -21
-3 -5 3 -11 13 -14 9 -3 24 -16 32 -27 8 -12 36 -43 61 -70 26 -26 45 -50 42
-53 -3 -2 5 -10 17 -16 14 -8 19 -17 15 -28 -3 -9 -3 -13 1 -10 8 8 44 -34 44
-51 0 -6 8 -11 18 -12 11 0 12 -2 4 -6 -9 -3 -4 -12 15 -29 15 -13 29 -28 29
-34 1 -5 2 -15 3 -21 0 -5 6 -7 11 -4 6 4 10 -5 10 -21 0 -15 3 -25 6 -21 8 8
33 -16 27 -26 -2 -4 3 -14 11 -23 9 -9 14 -20 11 -25 -4 -5 2 -9 12 -9 14 0
15 -2 4 -9 -11 -7 -9 -10 7 -15 13 -4 19 -13 15 -22 -3 -7 0 -14 7 -14 7 0 10
-6 7 -13 -3 -7 3 -19 14 -25 11 -7 16 -18 13 -27 -4 -8 -1 -15 6 -15 6 0 8 -4
5 -10 -3 -5 -1 -10 5 -10 6 0 8 -5 5 -10 -3 -6 0 -13 8 -16 8 -3 13 -16 11
-29 -1 -14 3 -23 9 -22 6 1 14 -11 17 -28 3 -16 11 -29 17 -28 5 1 9 -9 7 -22
-1 -14 2 -25 7 -25 5 0 9 -8 9 -19 0 -10 7 -24 15 -31 11 -9 12 -16 5 -25 -8
-10 -8 -15 1 -21 8 -5 9 -3 4 6 -6 9 -4 11 4 6 7 -5 10 -14 7 -22 -3 -8 -1
-14 5 -14 6 0 9 -7 5 -15 -3 -8 -1 -15 4 -15 6 0 10 -7 10 -15 0 -8 6 -15 13
-15 9 0 8 -3 -2 -9 -11 -7 -9 -13 8 -30 11 -11 16 -21 10 -21 -8 0 -9 -4 0
-13 6 -8 8 -17 4 -20 -3 -4 -1 -7 6 -7 8 0 11 -6 7 -17 -4 -9 -2 -19 4 -23 6
-4 12 -18 13 -31 1 -13 8 -34 16 -47 7 -13 10 -30 7 -38 -3 -8 -1 -14 4 -14 6
0 10 -8 10 -18 0 -10 6 -24 13 -31 10 -11 10 -13 0 -7 -7 4 -13 2 -13 -3 0 -6
8 -11 18 -11 14 0 15 -2 2 -10 -8 -5 -10 -10 -5 -10 6 0 10 -12 10 -27 -1 -16
3 -37 9 -48 6 -11 9 -23 8 -27 -1 -5 4 -8 10 -8 9 0 8 -4 -2 -10 -8 -5 -10
-10 -4 -10 10 0 14 -12 15 -52 0 -10 5 -18 11 -18 6 0 5 -7 -3 -17 -11 -13
-11 -15 -1 -9 10 6 13 2 11 -15 -1 -13 3 -37 9 -52 15 -35 15 -40 1 -32 -10 7
-9 3 19 -51 8 -16 7 -25 -1 -33 -8 -8 -8 -11 2 -11 7 0 11 -8 9 -17 -1 -10 1
-24 6 -32 7 -10 5 -12 -5 -7 -8 4 -5 0 5 -8 13 -10 15 -16 7 -16 -11 0 -11 -3
0 -17 12 -15 12 -16 -1 -8 -13 8 -13 7 -1 -8 8 -10 11 -20 8 -24 -4 -3 -2 -14
4 -24 7 -13 6 -19 -1 -19 -6 0 -8 -5 -5 -10 4 -6 12 -7 18 -3 9 5 9 3 1 -8 -5
-8 -9 -23 -9 -34 l2 -21 -1598 0 c-878 0 -1595 4 -1593 8 3 5 1 8 -5 8 -6 0
-8 7 -5 15 4 8 9 13 13 10 4 -2 8 2 8 10 0 8 -5 12 -10 8 -5 -3 -5 2 1 13 5
11 9 36 8 57 -1 23 2 36 8 34 6 -3 12 6 12 19 1 13 -2 22 -6 19 -9 -5 6 47 22
79 7 12 6 16 -1 11 -13 -7 -14 -3 -5 19 3 9 11 13 17 9 6 -4 7 -1 1 8 -12 20
-14 38 -3 45 5 3 7 10 4 15 -4 5 -2 9 3 9 6 0 8 10 4 22 -4 16 -2 19 9 13 12
-7 12 -6 1 7 -9 12 -10 18 -2 23 8 5 7 11 -2 23 -10 12 -10 14 0 8 10 -6 17 7
10 17 -2 2 3 11 9 19 7 8 11 24 8 36 -2 12 1 22 6 22 6 0 7 5 4 10 -4 6 -2 16
3 23 5 7 8 20 7 30 -2 9 1 17 6 17 4 0 5 7 2 17 -4 10 -2 14 5 9 7 -4 9 1 7
16 -3 12 3 30 11 39 9 10 13 22 10 27 -3 4 1 21 9 36 10 18 10 24 2 19 -9 -5
-9 -3 0 9 7 8 10 18 6 21 -3 4 -1 7 5 7 6 0 9 9 7 20 -3 13 0 18 7 14 7 -5 9
-1 5 9 -3 10 -3 17 2 17 7 0 9 7 13 49 1 11 5 18 9 15 4 -2 10 14 14 36 4 22
11 37 17 34 5 -3 9 0 7 7 -3 29 1 50 10 44 6 -3 8 3 6 15 -2 11 1 22 6 25 5 4
7 11 4 16 -4 5 -1 9 4 9 6 0 11 9 11 19 0 11 5 23 12 27 7 5 8 3 3 -6 -5 -9
-4 -11 4 -6 9 6 9 11 0 22 -9 11 -9 14 0 14 7 0 9 5 6 10 -3 6 -1 10 5 10 6 0
8 5 5 10 -3 6 -2 10 4 10 6 0 7 7 4 17 -4 9 -2 14 3 10 5 -3 14 6 21 19 8 18
8 22 0 17 -7 -3 -3 3 7 15 11 12 16 22 12 22 -4 0 2 10 13 22 11 11 18 25 15
30 -3 4 2 11 10 14 9 3 13 10 10 15 -7 13 21 50 32 41 4 -4 3 0 -4 9 -10 13
-10 19 1 28 8 6 16 9 19 6 2 -3 5 2 6 10 1 8 3 22 4 30 1 8 4 13 7 11 3 -2 15
8 25 22 12 15 14 22 5 17 -8 -4 0 7 16 25 17 18 23 30 15 26 -8 -4 -4 2 9 13
13 12 20 21 16 21 -3 0 0 7 7 15 33 37 39 46 33 55 -4 6 -3 10 2 9 22 -4 32 2
27 16 -4 8 -1 15 5 15 6 0 16 11 23 25 6 13 16 22 21 18 6 -4 8 0 4 11 -4 10
-3 15 3 11 6 -3 10 1 10 10 0 9 5 13 10 10 6 -3 10 1 10 9 0 9 7 16 16 16 8 0
13 4 10 8 -3 5 4 15 15 22 10 8 19 21 19 29 0 8 3 12 6 8 3 -3 29 18 56 46 28
29 55 51 59 49 5 -1 9 5 9 14 0 8 4 13 9 10 5 -3 11 1 15 9 3 8 13 15 21 15 9
0 13 5 10 10 -3 6 -1 10 4 10 6 0 20 9 31 20 11 11 20 15 20 9 0 -5 5 -7 10
-4 6 4 8 10 5 14 -2 5 13 16 35 26 22 10 40 22 40 27 0 5 4 7 9 3 6 -3 14 3
20 12 6 10 11 14 11 9 0 -5 9 -1 19 8 11 10 25 15 30 11 6 -3 11 -1 11 5 0 6
4 9 9 6 5 -3 12 1 15 10 5 12 9 14 20 5 10 -8 16 -8 26 4 7 8 16 12 21 9 5 -3
9 -1 9 5 0 5 12 8 26 5 16 -3 23 -1 19 6 -5 8 29 13 61 9 4 0 11 5 15 13 7 11
9 11 9 -1 0 -10 3 -11 14 -2 11 9 15 9 19 -1 3 -8 6 -6 6 6 1 15 4 16 16 6 11
-9 15 -9 15 -1z"/>
</g>
</svg>
