<?xml version="1.0" standalone="no"?>
<!DOCTYPE svg PUBLIC "-//W3C//DTD SVG 20010904//EN"
 "http://www.w3.org/TR/2001/REC-SVG-20010904/DTD/svg10.dtd">
<svg version="1.0" xmlns="http://www.w3.org/2000/svg"
 width="564.000000pt" height="564.000000pt" viewBox="0 0 564.000000 564.000000"
 preserveAspectRatio="xMidYMid meet">
<metadata>
Created by potrace 1.11, written by Peter Selinger 2001-2013
</metadata>
<g transform="translate(0.000000,564.000000) scale(0.100000,-0.100000)"
fill="#000000" stroke="none">
<path d="M2700 5615 c-335 -82 -617 -452 -749 -984 -28 -113 -35 -144 -46
-226 -10 -68 -14 -87 -18 -91 -2 -2 -129 -4 -284 -4 -297 -1 -349 -7 -417 -50
-62 -38 -124 -117 -145 -184 -19 -59 -20 -98 -18 -1551 l2 -1490 27 -56 c35
-70 97 -132 168 -167 l55 -27 1535 0 c844 0 1548 4 1563 8 99 27 186 110 226
217 21 54 21 61 21 1537 0 1068 -3 1490 -11 1510 -47 116 -99 177 -188 221
l-56 27 -295 3 c-162 2 -296 4 -297 5 -1 2 -4 18 -23 132 -42 264 -153 566
-275 757 -137 212 -286 338 -480 404 -65 21 -222 26 -295 9z m258 -134 c215
-61 429 -312 555 -651 32 -88 73 -221 83 -273 2 -12 6 -33 9 -47 3 -14 7 -36
10 -50 3 -14 7 -36 10 -50 3 -14 7 -42 10 -62 l4 -38 -809 0 -809 0 4 23 c2
12 6 40 10 62 20 133 83 374 120 460 94 216 174 344 280 451 68 69 155 132
212 156 90 36 223 44 311 19z"/>
</g>
</svg>
